<?xml version="1.0" encoding="UTF-8"?>
<!DOCTYPE svg PUBLIC "-//W3C//DTD SVG 1.1//EN" "http://www.w3.org/Graphics/SVG/1.1/DTD/svg11.dtd">
<svg xmlns="http://www.w3.org/2000/svg" version="1.1" width="500px" height="500px" style="shape-rendering:geometricPrecision; text-rendering:geometricPrecision; image-rendering:optimizeQuality; fill-rule:evenodd; clip-rule:evenodd" xmlns:xlink="http://www.w3.org/1999/xlink">
<g><path style="opacity:0.19" fill="#c5c5c5" d="M 296.5,126.5 C 299.167,126.5 301.833,126.5 304.5,126.5C 304.5,208.5 304.5,290.5 304.5,372.5C 301.833,372.5 299.167,372.5 296.5,372.5C 296.5,290.5 296.5,208.5 296.5,126.5 Z"/></g>
<g><path style="opacity:1" fill="#231f20" d="M 297.5,128.5 C 299.167,128.5 300.833,128.5 302.5,128.5C 302.5,209.167 302.5,289.833 302.5,370.5C 300.833,370.5 299.167,370.5 297.5,370.5C 297.5,289.833 297.5,209.167 297.5,128.5 Z"/></g>
<g><path style="opacity:0.912" fill="#2f2b2c" d="M 297.5,128.5 C 299.265,127.539 301.265,127.205 303.5,127.5C 303.5,208.833 303.5,290.167 303.5,371.5C 301.265,371.795 299.265,371.461 297.5,370.5C 299.167,370.5 300.833,370.5 302.5,370.5C 302.5,289.833 302.5,209.167 302.5,128.5C 300.833,128.5 299.167,128.5 297.5,128.5 Z"/></g>
<g><path style="opacity:0.004" fill="#fdfefd" d="M 202.5,184.5 C 203.833,185.167 203.833,185.167 202.5,184.5 Z"/></g>
<g><path style="opacity:0.004" fill="#fdfefd" d="M 177.5,204.5 C 178.833,205.167 178.833,205.167 177.5,204.5 Z"/></g>
<g><path style="opacity:0.004" fill="#fdfefd" d="M 237.5,205.5 C 238.833,206.167 238.833,206.167 237.5,205.5 Z"/></g>
<g><path style="opacity:0.267" fill="#c0bfbf" d="M 69.5,209.5 C 68.2954,207.862 66.9621,207.529 65.5,208.5C 67.2689,204.519 68.6022,204.852 69.5,209.5 Z"/></g>
<g><path style="opacity:0.627" fill="#7c7a7b" d="M 215.5,207.5 C 215.833,207.5 216.167,207.5 216.5,207.5C 224.5,207.5 232.5,207.5 240.5,207.5C 240.815,211.371 240.482,215.038 239.5,218.5C 231.5,218.5 223.5,218.5 215.5,218.5C 222.982,217.508 230.648,217.175 238.5,217.5C 238.5,214.5 238.5,211.5 238.5,208.5C 230.648,208.825 222.982,208.492 215.5,207.5 Z"/></g>
<g><path style="opacity:0.278" fill="#bab9ba" d="M 186.5,207.5 C 187.483,211.298 187.817,215.298 187.5,219.5C 184.133,219.543 180.799,219.21 177.5,218.5C 173.487,219.169 169.487,219.836 165.5,220.5C 167.148,219.073 169.148,218.24 171.5,218C 176.537,217.337 181.537,217.504 186.5,218.5C 186.5,214.833 186.5,211.167 186.5,207.5 Z"/></g>
<g><path style="opacity:0.288" fill="#c3c0c1" d="M 245.5,207.5 C 249.5,207.5 253.5,207.5 257.5,207.5C 257.5,242.833 257.5,278.167 257.5,313.5C 253.5,313.5 249.5,313.5 245.5,313.5C 245.5,278.167 245.5,242.833 245.5,207.5 Z"/></g>
<g><path style="opacity:1" fill="#231f20" d="M 246.5,208.5 C 249.833,208.5 253.167,208.5 256.5,208.5C 256.5,243.167 256.5,277.833 256.5,312.5C 253.167,312.5 249.833,312.5 246.5,312.5C 246.5,277.833 246.5,243.167 246.5,208.5 Z"/></g>
<g><path style="opacity:0.533" fill="#afadae" d="M 155.5,212.5 C 155.027,213.906 154.027,214.573 152.5,214.5C 152.973,213.094 153.973,212.427 155.5,212.5 Z"/></g>
<g><path style="opacity:0.145" fill="#cdcccd" d="M 63.5,212.5 C 62.9213,215.331 61.588,217.664 59.5,219.5C 60.0787,216.669 61.412,214.336 63.5,212.5 Z"/></g>
<g><path style="opacity:0.659" fill="#969595" d="M 152.5,214.5 C 151.089,216.914 149.089,218.581 146.5,219.5C 147.911,217.086 149.911,215.419 152.5,214.5 Z"/></g>
<g><path style="opacity:0.055" fill="#ececec" d="M 215.5,218.5 C 223.5,218.5 231.5,218.5 239.5,218.5C 232.018,219.492 224.352,219.825 216.5,219.5C 216.5,250.833 216.5,282.167 216.5,313.5C 212.833,313.5 209.167,313.5 205.5,313.5C 205.5,313.167 205.5,312.833 205.5,312.5C 208.833,312.5 212.167,312.5 215.5,312.5C 215.5,281.167 215.5,249.833 215.5,218.5 Z"/></g>
<g><path style="opacity:0.275" fill="#c3c2c2" d="M 165.5,220.5 C 163.819,222.008 161.819,223.008 159.5,223.5C 160.911,221.461 162.911,220.461 165.5,220.5 Z"/></g>
<g><path style="opacity:0.114" fill="#c9c8c8" d="M 74.5,219.5 C 76.1042,220.287 76.7709,221.62 76.5,223.5C 75.3263,222.486 74.6596,221.153 74.5,219.5 Z"/></g>
<g><path style="opacity:1" fill="#242021" d="M 215.5,207.5 C 222.982,208.492 230.648,208.825 238.5,208.5C 238.5,211.5 238.5,214.5 238.5,217.5C 230.648,217.175 222.982,217.508 215.5,218.5C 215.5,249.833 215.5,281.167 215.5,312.5C 212.167,312.5 208.833,312.5 205.5,312.5C 205.5,280.833 205.5,249.167 205.5,217.5C 201.833,217.5 198.167,217.5 194.5,217.5C 194.5,214.5 194.5,211.5 194.5,208.5C 198.167,208.5 201.833,208.5 205.5,208.5C 205.5,201.167 205.5,193.833 205.5,186.5C 208.833,186.5 212.167,186.5 215.5,186.5C 215.5,193.5 215.5,200.5 215.5,207.5 Z"/></g>
<g><path style="opacity:0.667" fill="#959394" d="M 146.5,219.5 C 145.243,222.427 143.243,224.761 140.5,226.5C 141.757,223.573 143.757,221.239 146.5,219.5 Z"/></g>
<g><path style="opacity:0.478" fill="#9b999a" d="M 216.5,207.5 C 216.167,207.5 215.833,207.5 215.5,207.5C 215.5,200.5 215.5,193.5 215.5,186.5C 212.167,186.5 208.833,186.5 205.5,186.5C 205.5,193.833 205.5,201.167 205.5,208.5C 201.833,208.5 198.167,208.5 194.5,208.5C 194.5,211.5 194.5,214.5 194.5,217.5C 198.167,217.5 201.833,217.5 205.5,217.5C 205.5,249.167 205.5,280.833 205.5,312.5C 204.502,287.005 204.169,261.339 204.5,235.5C 204.348,230.182 204.348,225.015 204.5,220C 200.911,219.793 197.411,219.293 194,218.5C 193.501,214.848 193.335,211.182 193.5,207.5C 197.167,207.5 200.833,207.5 204.5,207.5C 204.5,200.167 204.5,192.833 204.5,185.5C 208.5,185.5 212.5,185.5 216.5,185.5C 216.5,192.833 216.5,200.167 216.5,207.5 Z"/></g>
<g><path style="opacity:0.859" fill="#807e7f" d="M 59.5,220.5 C 59.2639,223.621 57.9305,225.954 55.5,227.5C 56.0787,224.669 57.412,222.336 59.5,220.5 Z"/></g>
<g><path style="opacity:0.016" fill="#d7d6d6" d="M 159.5,223.5 C 159.027,224.906 158.027,225.573 156.5,225.5C 156.973,224.094 157.973,223.427 159.5,223.5 Z"/></g>
<g><path style="opacity:0.227" fill="#bfbebe" d="M 77.5,225.5 C 78.9063,225.973 79.573,226.973 79.5,228.5C 78.0937,228.027 77.427,227.027 77.5,225.5 Z"/></g>
<g><path style="opacity:0.048" fill="#e2e1e1" d="M 333.5,229.5 C 334.327,234.985 334.827,240.652 335,246.5C 336.129,244.859 337.629,243.859 339.5,243.5C 338.139,245.527 336.473,247.194 334.5,248.5C 333.51,242.355 333.177,236.022 333.5,229.5 Z"/></g>
<g><path style="opacity:0.967" fill="#7a7778" d="M 140.5,226.5 C 139.699,229.782 138.032,232.448 135.5,234.5C 136.169,231.151 137.836,228.484 140.5,226.5 Z"/></g>
<g><path style="opacity:0.369" fill="#afadae" d="M 381.5,229.5 C 383.5,229.5 385.5,229.5 387.5,229.5C 387.5,231.5 387.5,233.5 387.5,235.5C 385.5,235.5 383.5,235.5 381.5,235.5C 381.5,233.5 381.5,231.5 381.5,229.5 Z"/></g>
<g><path style="opacity:0.975" fill="#221f20" d="M 382.5,230.5 C 383.833,230.5 385.167,230.5 386.5,230.5C 386.5,231.833 386.5,233.167 386.5,234.5C 385.167,234.5 383.833,234.5 382.5,234.5C 382.5,233.167 382.5,231.833 382.5,230.5 Z"/></g>
<g><path style="opacity:0.18" fill="#c9c8c9" d="M 405.5,230.5 C 407.265,229.539 409.265,229.205 411.5,229.5C 411.5,231.5 411.5,233.5 411.5,235.5C 409.265,235.795 407.265,235.461 405.5,234.5C 407.167,234.5 408.833,234.5 410.5,234.5C 410.5,233.167 410.5,231.833 410.5,230.5C 408.833,230.5 407.167,230.5 405.5,230.5 Z"/></g>
<g><path style="opacity:0.294" fill="#b9b7b8" d="M 393.5,230.5 C 395.265,229.539 397.265,229.205 399.5,229.5C 399.5,249.833 399.5,270.167 399.5,290.5C 397.265,290.795 395.265,290.461 393.5,289.5C 395.415,289.784 397.081,289.451 398.5,288.5C 398.5,269.167 398.5,249.833 398.5,230.5C 397.167,230.5 395.833,230.5 394.5,230.5C 394.167,230.5 393.833,230.5 393.5,230.5 Z"/></g>
<g><path style="opacity:0.016" fill="#cbcaca" d="M 149.5,232.5 C 149.573,234.027 148.906,235.027 147.5,235.5C 147.427,233.973 148.094,232.973 149.5,232.5 Z"/></g>
<g><path style="opacity:0.504" fill="#848283" d="M 393.5,230.5 C 393.833,230.5 394.167,230.5 394.5,230.5C 394.5,249.833 394.5,269.167 394.5,288.5C 395.833,288.5 397.167,288.5 398.5,288.5C 397.081,289.451 395.415,289.784 393.5,289.5C 393.5,269.833 393.5,250.167 393.5,230.5 Z"/></g>
<g><path style="opacity:0.893" fill="#343132" d="M 405.5,230.5 C 407.167,230.5 408.833,230.5 410.5,230.5C 410.5,231.833 410.5,233.167 410.5,234.5C 408.833,234.5 407.167,234.5 405.5,234.5C 405.5,233.167 405.5,231.833 405.5,230.5 Z"/></g>
<g><path style="opacity:0.004" fill="#fdfdfd" d="M 204.5,235.5 C 204.169,261.339 204.502,287.005 205.5,312.5C 205.5,312.833 205.5,313.167 205.5,313.5C 204.167,300.851 203.501,287.851 203.5,274.5C 203.5,261.329 203.833,248.329 204.5,235.5 Z"/></g>
<g><path style="opacity:0.604" fill="#989697" d="M 333.5,229.5 C 333.177,236.022 333.51,242.355 334.5,248.5C 334.44,249.043 334.107,249.376 333.5,249.5C 332.504,243.202 332.17,236.868 332.5,230.5C 331.167,230.5 329.833,230.5 328.5,230.5C 328.5,243.167 328.5,255.833 328.5,268.5C 327.505,255.677 327.171,242.677 327.5,229.5C 329.5,229.5 331.5,229.5 333.5,229.5 Z"/></g>
<g><path style="opacity:0.004" fill="#fdfefd" d="M 383.5,237.5 C 383.897,236.475 384.563,236.308 385.5,237C 384.906,237.464 384.239,237.631 383.5,237.5 Z"/></g>
<g><path style="opacity:1" fill="#221e1f" d="M 394.5,230.5 C 395.833,230.5 397.167,230.5 398.5,230.5C 398.5,249.833 398.5,269.167 398.5,288.5C 397.167,288.5 395.833,288.5 394.5,288.5C 394.5,269.167 394.5,249.833 394.5,230.5 Z"/></g>
<g><path style="opacity:0.149" fill="#cfcece" d="M 51.5,235.5 C 51.1075,237.284 50.4408,238.95 49.5,240.5C 49.1667,240.5 48.8333,240.5 48.5,240.5C 48.7497,238.326 49.7497,236.659 51.5,235.5 Z"/></g>
<g><path style="opacity:0.165" fill="#c8c7c8" d="M 147.5,235.5 C 147.25,237.674 146.25,239.341 144.5,240.5C 144.75,238.326 145.75,236.659 147.5,235.5 Z"/></g>
<g><path style="opacity:0.004" fill="#fdfefd" d="M 380.5,237.5 C 381.833,238.167 381.833,238.167 380.5,237.5 Z"/></g>
<g><path style="opacity:0.004" fill="#fdfefd" d="M 383.5,237.5 C 382.833,238.167 382.833,238.167 383.5,237.5 Z"/></g>
<g><path style="opacity:0.004" fill="#fdfefd" d="M 387.5,238.5 C 386.833,237.167 386.833,237.167 387.5,238.5 Z"/></g>
<g><path style="opacity:0.004" fill="#fdfefd" d="M 408.5,237.5 C 409.833,238.167 409.833,238.167 408.5,237.5 Z"/></g>
<g><path style="opacity:0.004" fill="#fdfefd" d="M 387.5,238.5 C 388.833,239.167 388.833,239.167 387.5,238.5 Z"/></g>
<g><path style="opacity:0.969" fill="#565354" d="M 82.5,234.5 C 85.0078,238.182 87.0078,242.182 88.5,246.5C 84.3149,243.634 82.3149,239.634 82.5,234.5 Z"/></g>
<g><path style="opacity:0.671" fill="#8b8a8a" d="M 442.5,240.5 C 437.463,240.413 432.463,240.746 427.5,241.5C 432.453,238.628 437.453,238.295 442.5,240.5 Z"/></g>
<g><path style="opacity:0.673" fill="#8e8c8d" d="M 475.5,240.5 C 470.463,240.413 465.463,240.746 460.5,241.5C 465.385,238.298 470.385,237.965 475.5,240.5 Z"/></g>
<g><path style="opacity:0.765" fill="#949293" d="M 361.5,240.5 C 355.131,240.347 348.797,240.68 342.5,241.5C 348.709,238.097 355.042,237.763 361.5,240.5 Z"/></g>
<g><path style="opacity:0.18" fill="#d3d2d2" d="M 405.5,240.5 C 407.265,239.539 409.265,239.205 411.5,239.5C 411.5,256.5 411.5,273.5 411.5,290.5C 409.265,290.795 407.265,290.461 405.5,289.5C 407.415,289.784 409.081,289.451 410.5,288.5C 410.5,272.5 410.5,256.5 410.5,240.5C 409.167,240.5 407.833,240.5 406.5,240.5C 406.167,240.5 405.833,240.5 405.5,240.5 Z"/></g>
<g><path style="opacity:0.192" fill="#bebdbe" d="M 475.5,240.5 C 478.614,240.555 480.948,241.888 482.5,244.5C 479.996,243.416 477.663,242.083 475.5,240.5 Z"/></g>
<g><path style="opacity:0.067" fill="#deddde" d="M 133.5,238.5 C 133.598,240.553 132.931,242.22 131.5,243.5C 131.402,241.447 132.069,239.78 133.5,238.5 Z"/></g>
<g><path style="opacity:1" fill="#221e1f" d="M 386.5,240.5 C 386.5,256.5 386.5,272.5 386.5,288.5C 385.167,288.5 383.833,288.5 382.5,288.5C 382.5,272.5 382.5,256.5 382.5,240.5C 383.833,240.5 385.167,240.5 386.5,240.5 Z"/></g>
<g><path style="opacity:0.004" fill="#d7d5d6" d="M 366.5,242.5 C 368.027,242.427 369.027,243.094 369.5,244.5C 367.973,244.573 366.973,243.906 366.5,242.5 Z"/></g>
<g><path style="opacity:1" fill="#231f20" d="M 406.5,240.5 C 407.833,240.5 409.167,240.5 410.5,240.5C 410.5,256.5 410.5,272.5 410.5,288.5C 409.167,288.5 407.833,288.5 406.5,288.5C 406.5,272.5 406.5,256.5 406.5,240.5 Z"/></g>
<g><path style="opacity:0.43" fill="#929191" d="M 386.5,240.5 C 386.833,240.5 387.167,240.5 387.5,240.5C 387.5,256.833 387.5,273.167 387.5,289.5C 385.585,289.784 383.919,289.451 382.5,288.5C 383.833,288.5 385.167,288.5 386.5,288.5C 386.5,272.5 386.5,256.5 386.5,240.5 Z"/></g>
<g><path style="opacity:0.608" fill="#6e6a6a" d="M 405.5,240.5 C 405.833,240.5 406.167,240.5 406.5,240.5C 406.5,256.5 406.5,272.5 406.5,288.5C 407.833,288.5 409.167,288.5 410.5,288.5C 409.081,289.451 407.415,289.784 405.5,289.5C 405.5,273.167 405.5,256.833 405.5,240.5 Z"/></g>
<g><path style="opacity:0.792" fill="#818080" d="M 427.5,241.5 C 426.415,243.587 424.749,244.92 422.5,245.5C 423.585,243.413 425.251,242.08 427.5,241.5 Z"/></g>
<g><path style="opacity:1" fill="#2b2728" d="M 442.5,240.5 C 443.791,240.263 444.791,240.596 445.5,241.5C 445.973,242.906 446.973,243.573 448.5,243.5C 450.129,244.625 451.629,245.959 453,247.5C 453.708,246.619 454.542,245.953 455.5,245.5C 457.749,244.92 459.415,243.587 460.5,241.5C 465.463,240.746 470.463,240.413 475.5,240.5C 477.663,242.083 479.996,243.416 482.5,244.5C 482.738,246.404 483.738,247.738 485.5,248.5C 485.892,250.179 486.392,251.846 487,253.5C 487.5,265.495 487.667,277.495 487.5,289.5C 486.167,289.5 484.833,289.5 483.5,289.5C 483.828,277.655 483.495,265.988 482.5,254.5C 481.326,253.486 480.66,252.153 480.5,250.5C 480.5,248.5 479.5,247.5 477.5,247.5C 476.713,245.896 475.38,245.229 473.5,245.5C 468.436,244.909 463.769,245.909 459.5,248.5C 458.094,248.973 457.427,249.973 457.5,251.5C 457.167,252.167 456.833,252.833 456.5,253.5C 455.778,253.918 455.278,254.584 455,255.5C 454.5,266.495 454.333,277.495 454.5,288.5C 453.167,288.5 451.833,288.5 450.5,288.5C 450.828,276.655 450.495,264.988 449.5,253.5C 448.599,252.71 447.932,251.71 447.5,250.5C 447.5,248.5 446.5,247.5 444.5,247.5C 443.713,245.896 442.38,245.229 440.5,245.5C 439.207,244.842 437.707,244.508 436,244.5C 433.456,244.336 431.29,245.003 429.5,246.5C 429.5,247.167 429.167,247.5 428.5,247.5C 426.5,247.5 425.5,248.5 425.5,250.5C 425.068,251.71 424.401,252.71 423.5,253.5C 422.732,254.263 422.232,255.263 422,256.5C 421.5,267.161 421.333,277.828 421.5,288.5C 420.5,288.5 419.5,288.5 418.5,288.5C 418.244,275.47 418.577,262.47 419.5,249.5C 421.262,248.738 422.262,247.404 422.5,245.5C 424.749,244.92 426.415,243.587 427.5,241.5C 432.463,240.746 437.463,240.413 442.5,240.5 Z"/></g>
<g><path style="opacity:0.878" fill="#6b6a6b" d="M 460.5,241.5 C 459.415,243.587 457.749,244.92 455.5,245.5C 456.585,243.413 458.251,242.08 460.5,241.5 Z"/></g>
<g><path style="opacity:0.102" fill="#d6d5d5" d="M 440.5,245.5 C 436.785,245.423 433.119,245.756 429.5,246.5C 431.29,245.003 433.456,244.336 436,244.5C 437.707,244.508 439.207,244.842 440.5,245.5 Z"/></g>
<g><path style="opacity:0.082" fill="#d5d4d4" d="M 445.5,241.5 C 447.027,241.427 448.027,242.094 448.5,243.5C 446.973,243.573 445.973,242.906 445.5,241.5 Z"/></g>
<g><path style="opacity:0.141" fill="#d3d2d2" d="M 473.5,245.5 C 475.38,245.229 476.713,245.896 477.5,247.5C 475.847,247.34 474.514,246.674 473.5,245.5 Z"/></g>
<g><path style="opacity:0.678" fill="#9f9d9e" d="M 482.5,244.5 C 484.262,245.262 485.262,246.596 485.5,248.5C 483.738,247.738 482.738,246.404 482.5,244.5 Z"/></g>
<g><path style="opacity:0.761" fill="#919090" d="M 422.5,245.5 C 422.262,247.404 421.262,248.738 419.5,249.5C 419.738,247.596 420.738,246.262 422.5,245.5 Z"/></g>
<g><path style="opacity:0.149" fill="#dfdedf" d="M 440.5,245.5 C 442.38,245.229 443.713,245.896 444.5,247.5C 442.847,247.34 441.514,246.674 440.5,245.5 Z"/></g>
<g><path style="opacity:0.741" fill="#9b9899" d="M 371.5,246.5 C 373.587,247.585 374.92,249.251 375.5,251.5C 373.413,250.415 372.08,248.749 371.5,246.5 Z"/></g>
<g><path style="opacity:0.533" fill="#b3b1b2" d="M 444.5,247.5 C 446.5,247.5 447.5,248.5 447.5,250.5C 446.167,249.833 445.167,248.833 444.5,247.5 Z"/></g>
<g><path style="opacity:0.631" fill="#a09e9f" d="M 477.5,247.5 C 479.5,247.5 480.5,248.5 480.5,250.5C 479.167,249.833 478.167,248.833 477.5,247.5 Z"/></g>
<g><path style="opacity:0.243" fill="#bbbabb" d="M 88.5,246.5 C 89.9063,246.973 90.573,247.973 90.5,249.5C 89.0937,249.027 88.427,248.027 88.5,246.5 Z"/></g>
<g><path style="opacity:0.016" fill="#d4d3d4" d="M 428.5,247.5 C 427.833,248.833 426.833,249.833 425.5,250.5C 425.5,248.5 426.5,247.5 428.5,247.5 Z"/></g>
<g><path style="opacity:0.969" fill="#656263" d="M 48.5,241.5 C 47.1803,246.306 45.1803,250.806 42.5,255C 42.8333,255.333 43.1667,255.667 43.5,256C 42.552,256.483 41.552,256.649 40.5,256.5C 42.4068,251.016 45.0734,246.016 48.5,241.5 Z"/></g>
<g><path style="opacity:0.012" fill="#d4d3d4" d="M 459.5,248.5 C 459.573,250.027 458.906,251.027 457.5,251.5C 457.427,249.973 458.094,248.973 459.5,248.5 Z"/></g>
<g><path style="opacity:0.004" fill="#fdfefd" d="M 412.5,252.5 C 413.833,253.167 413.833,253.167 412.5,252.5 Z"/></g>
<g><path style="opacity:0.149" fill="#d0cfcf" d="M 375.5,251.5 C 377.539,252.911 378.539,254.911 378.5,257.5C 376.992,255.819 375.992,253.819 375.5,251.5 Z"/></g>
<g><path style="opacity:1" fill="#272324" d="M 186.5,207.5 C 186.5,211.167 186.5,214.833 186.5,218.5C 181.537,217.504 176.537,217.337 171.5,218C 169.148,218.24 167.148,219.073 165.5,220.5C 162.911,220.461 160.911,221.461 159.5,223.5C 157.973,223.427 156.973,224.094 156.5,225.5C 154.5,228.167 152.167,230.5 149.5,232.5C 148.094,232.973 147.427,233.973 147.5,235.5C 145.75,236.659 144.75,238.326 144.5,240.5C 144.204,242.403 143.537,244.07 142.5,245.5C 141.4,247.277 140.566,249.277 140,251.5C 139.5,271.831 139.333,292.164 139.5,312.5C 136.5,312.5 133.5,312.5 130.5,312.5C 130.5,291.5 130.5,270.5 130.5,249.5C 130.205,247.265 130.539,245.265 131.5,243.5C 132.931,242.22 133.598,240.553 133.5,238.5C 133.66,236.847 134.326,235.514 135.5,234.5C 138.032,232.448 139.699,229.782 140.5,226.5C 143.243,224.761 145.243,222.427 146.5,219.5C 149.089,218.581 151.089,216.914 152.5,214.5C 154.027,214.573 155.027,213.906 155.5,212.5C 165.088,206.747 175.421,205.08 186.5,207.5 Z"/></g>
<g><path style="opacity:0.118" fill="#dcdbdc" d="M 485.5,248.5 C 486.966,249.347 487.8,250.68 488,252.5C 488.827,265.007 488.66,277.34 487.5,289.5C 487.667,277.495 487.5,265.495 487,253.5C 486.392,251.846 485.892,250.179 485.5,248.5 Z"/></g>
<g><path style="opacity:0.095" fill="#e3e3e3" d="M 449.5,253.5 C 450.495,264.988 450.828,276.655 450.5,288.5C 451.919,289.451 453.585,289.784 455.5,289.5C 453.735,290.461 451.735,290.795 449.5,290.5C 449.5,278.167 449.5,265.833 449.5,253.5 Z"/></g>
<g><path style="opacity:0.22" fill="#c1c0c0" d="M 53.5,255.5 C 53.2503,257.674 52.2503,259.341 50.5,260.5C 50.7497,258.326 51.7497,256.659 53.5,255.5 Z"/></g>
<g><path style="opacity:0.157" fill="#cdcbcc" d="M 40.5,256.5 C 40.573,258.027 39.9063,259.027 38.5,259.5C 38.427,257.973 39.0937,256.973 40.5,256.5 Z"/></g>
<g><path style="opacity:0.588" fill="#9a9899" d="M 456.5,253.5 C 456.828,265.678 456.495,277.678 455.5,289.5C 453.585,289.784 451.919,289.451 450.5,288.5C 451.833,288.5 453.167,288.5 454.5,288.5C 454.333,277.495 454.5,266.495 455,255.5C 455.278,254.584 455.778,253.918 456.5,253.5 Z"/></g>
<g><path style="opacity:0.235" fill="#c0c0c0" d="M 142.5,245.5 C 142.196,248.522 141.696,251.522 141,254.5C 140.832,274.338 140.332,294.004 139.5,313.5C 139.5,313.167 139.5,312.833 139.5,312.5C 139.333,292.164 139.5,271.831 140,251.5C 140.566,249.277 141.4,247.277 142.5,245.5 Z"/></g>
<g><path style="opacity:1" fill="#2d2a2b" d="M 334.5,248.5 C 336.473,247.194 338.139,245.527 339.5,243.5C 341.027,243.573 342.027,242.906 342.5,241.5C 348.797,240.68 355.131,240.347 361.5,240.5C 363.553,240.402 365.22,241.069 366.5,242.5C 366.973,243.906 367.973,244.573 369.5,244.5C 370.5,244.833 371.167,245.5 371.5,246.5C 372.08,248.749 373.413,250.415 375.5,251.5C 375.992,253.819 376.992,255.819 378.5,257.5C 379.797,262.267 379.797,266.934 378.5,271.5C 376.659,273.849 375.326,276.515 374.5,279.5C 374.167,280.5 373.5,281.167 372.5,281.5C 371.167,282.167 370.167,283.167 369.5,284.5C 368.564,285.974 367.23,286.974 365.5,287.5C 358.585,289.625 351.585,289.958 344.5,288.5C 342.847,288.34 341.514,287.674 340.5,286.5C 339.738,284.738 338.404,283.738 336.5,283.5C 334.086,282.089 332.419,280.089 331.5,277.5C 331.065,274.843 330.065,272.509 328.5,270.5C 328.5,269.833 328.5,269.167 328.5,268.5C 328.5,255.833 328.5,243.167 328.5,230.5C 329.833,230.5 331.167,230.5 332.5,230.5C 332.17,236.868 332.504,243.202 333.5,249.5C 334.107,249.376 334.44,249.043 334.5,248.5 Z M 359.5,245.5 C 360.514,246.674 361.847,247.34 363.5,247.5C 363.833,247.5 364.167,247.5 364.5,247.5C 365.833,249.5 367.5,251.167 369.5,252.5C 369.932,253.71 370.599,254.71 371.5,255.5C 371.328,256.492 371.662,257.158 372.5,257.5C 373.416,261.874 373.416,266.208 372.5,270.5C 371.559,272.05 370.893,273.716 370.5,275.5C 368.738,276.262 367.738,277.596 367.5,279.5C 365.973,279.427 364.973,280.094 364.5,281.5C 359.802,283.881 354.802,284.881 349.5,284.5C 348.791,283.596 347.791,283.263 346.5,283.5C 345.035,282.263 343.368,281.263 341.5,280.5C 340.5,278.833 339.167,277.5 337.5,276.5C 337.573,274.973 336.906,273.973 335.5,273.5C 334.167,267.833 334.167,262.167 335.5,256.5C 337.482,252.854 340.149,249.854 343.5,247.5C 348.676,245.816 354.009,245.15 359.5,245.5 Z"/></g>
<g><path style="opacity:0.812" fill="#878586" d="M 369.5,252.5 C 371.048,252.821 371.715,253.821 371.5,255.5C 370.599,254.71 369.932,253.71 369.5,252.5 Z"/></g>
<g><path style="opacity:0.729" fill="#9c9a9b" d="M 364.5,247.5 C 367.167,248.167 368.833,249.833 369.5,252.5C 367.5,251.167 365.833,249.5 364.5,247.5 Z"/></g>
<g><path style="opacity:0.106" fill="#dfddde" d="M 359.5,245.5 C 361.38,245.229 362.713,245.896 363.5,247.5C 361.847,247.34 360.514,246.674 359.5,245.5 Z"/></g>
<g><path style="opacity:0.081" fill="#d4d3d3" d="M 359.5,245.5 C 354.009,245.15 348.676,245.816 343.5,247.5C 344.058,246.21 345.058,245.377 346.5,245C 351.02,244.186 355.354,244.353 359.5,245.5 Z"/></g>
<g><path style="opacity:0.537" fill="#adacad" d="M 342.5,241.5 C 342.027,242.906 341.027,243.573 339.5,243.5C 339.973,242.094 340.973,241.427 342.5,241.5 Z"/></g>
<g><path style="opacity:0.746" fill="#908f8f" d="M 419.5,249.5 C 418.577,262.47 418.244,275.47 418.5,288.5C 419.5,288.5 420.5,288.5 421.5,288.5C 421.333,277.828 421.5,267.161 422,256.5C 422.232,255.263 422.732,254.263 423.5,253.5C 423.667,265.505 423.5,277.505 423,289.5C 421.274,290.576 419.441,290.743 417.5,290C 416.346,278.243 416.179,266.409 417,254.5C 417.374,252.509 418.207,250.842 419.5,249.5 Z"/></g>
<g><path style="opacity:0.129" fill="#cecdce" d="M 95.5,259.5 C 97.2503,260.659 98.2503,262.326 98.5,264.5C 96.7497,263.341 95.7497,261.674 95.5,259.5 Z"/></g>
<g><path style="opacity:0.259" fill="#b8b7b8" d="M 83.5,260.5 C 85.2503,261.659 86.2503,263.326 86.5,265.5C 84.7497,264.341 83.7497,262.674 83.5,260.5 Z"/></g>
<g><path style="opacity:0.738" fill="#838181" d="M 130.5,249.5 C 130.5,270.5 130.5,291.5 130.5,312.5C 133.5,312.5 136.5,312.5 139.5,312.5C 139.5,312.833 139.5,313.167 139.5,313.5C 135.833,313.5 132.167,313.5 128.5,313.5C 128.333,294.497 128.5,275.497 129,256.5C 129.186,253.964 129.686,251.631 130.5,249.5 Z"/></g>
<g><path style="opacity:0.054" fill="#d9d9d9" d="M 335.5,256.5 C 334.167,262.167 334.167,267.833 335.5,273.5C 334.778,273.082 334.278,272.416 334,271.5C 333.333,267.167 333.333,262.833 334,258.5C 334.278,257.584 334.778,256.918 335.5,256.5 Z"/></g>
<g><path style="opacity:0.408" fill="#b4b3b4" d="M 372.5,257.5 C 375.167,261.833 375.167,266.167 372.5,270.5C 373.416,266.208 373.416,261.874 372.5,257.5 Z"/></g>
<g><path style="opacity:0.2" fill="#d1cfd0" d="M 482.5,254.5 C 483.495,265.988 483.828,277.655 483.5,289.5C 484.833,289.5 486.167,289.5 487.5,289.5C 486.081,290.451 484.415,290.784 482.5,290.5C 482.5,278.5 482.5,266.5 482.5,254.5 Z"/></g>
<g><path style="opacity:0.118" fill="#c8c8c8" d="M 87.5,267.5 C 88.6737,268.514 89.3404,269.847 89.5,271.5C 87.8958,270.713 87.2291,269.38 87.5,267.5 Z"/></g>
<g><path style="opacity:0.37" fill="#aeadad" d="M 387.5,239.5 C 387.5,239.833 387.5,240.167 387.5,240.5C 387.167,240.5 386.833,240.5 386.5,240.5C 385.167,240.5 383.833,240.5 382.5,240.5C 382.5,256.5 382.5,272.5 382.5,288.5C 383.919,289.451 385.585,289.784 387.5,289.5C 385.735,290.461 383.735,290.795 381.5,290.5C 381.5,273.5 381.5,256.5 381.5,239.5C 383.5,239.5 385.5,239.5 387.5,239.5 Z"/></g>
<g><path style="opacity:0.259" fill="#b9b8b8" d="M 99.5,267.5 C 100.906,267.973 101.573,268.973 101.5,270.5C 100.094,270.027 99.427,269.027 99.5,267.5 Z"/></g>
<g><path style="opacity:0.975" fill="#6b6869" d="M 37.5,262.5 C 36.7597,266.99 34.7597,270.657 31.5,273.5C 32.7417,269.345 34.7417,265.678 37.5,262.5 Z"/></g>
<g><path style="opacity:0.212" fill="#c9c8c9" d="M 378.5,271.5 C 378.206,274.754 376.873,277.421 374.5,279.5C 375.326,276.515 376.659,273.849 378.5,271.5 Z"/></g>
<g><path style="opacity:0.149" fill="#d0cfcf" d="M 31.5,273.5 C 31.573,275.027 30.9063,276.027 29.5,276.5C 29.427,274.973 30.0937,273.973 31.5,273.5 Z"/></g>
<g><path style="opacity:0.216" fill="#c9c8c9" d="M 335.5,273.5 C 336.906,273.973 337.573,274.973 337.5,276.5C 336.094,276.027 335.427,275.027 335.5,273.5 Z"/></g>
<g><path style="opacity:0.133" fill="#d2d1d1" d="M 43.5,274.5 C 43.2503,276.674 42.2503,278.341 40.5,279.5C 40.7497,277.326 41.7497,275.659 43.5,274.5 Z"/></g>
<g><path style="opacity:0.106" fill="#cac9c9" d="M 328.5,270.5 C 330.065,272.509 331.065,274.843 331.5,277.5C 329.552,275.68 328.552,273.346 328.5,270.5 Z"/></g>
<g><path style="opacity:0.498" fill="#b7b6b7" d="M 370.5,275.5 C 370.262,277.404 369.262,278.738 367.5,279.5C 367.738,277.596 368.738,276.262 370.5,275.5 Z"/></g>
<g><path style="opacity:1" fill="#2e2a2b" d="M 54.5,253.5 C 54.6716,254.492 54.3382,255.158 53.5,255.5C 51.7497,256.659 50.7497,258.326 50.5,260.5C 48.6916,265.45 46.3583,270.117 43.5,274.5C 41.7497,275.659 40.7497,277.326 40.5,279.5C 40.0075,281.819 39.0075,283.819 37.5,285.5C 35.7497,286.659 34.7497,288.326 34.5,290.5C 31.5944,297.981 27.9277,304.981 23.5,311.5C 19.3989,312.791 15.3989,312.791 11.5,311.5C 12.6589,307.849 14.3256,304.515 16.5,301.5C 18.4077,300.514 19.4077,298.848 19.5,296.5C 20.5,296.5 21.5,296.5 22.5,296.5C 24.0384,291.886 25.3717,287.219 26.5,282.5C 28.539,281.089 29.539,279.089 29.5,276.5C 30.9063,276.027 31.573,275.027 31.5,273.5C 34.7597,270.657 36.7597,266.99 37.5,262.5C 37.2627,261.209 37.596,260.209 38.5,259.5C 39.9063,259.027 40.573,258.027 40.5,256.5C 41.552,256.649 42.552,256.483 43.5,256C 43.1667,255.667 42.8333,255.333 42.5,255C 45.1803,250.806 47.1803,246.306 48.5,241.5C 48.5,241.167 48.5,240.833 48.5,240.5C 48.8333,240.5 49.1667,240.5 49.5,240.5C 50.1174,240.611 50.6174,240.944 51,241.5C 51.5431,239.369 52.3764,237.369 53.5,235.5C 54.3081,235.808 54.9747,236.308 55.5,237C 54.5,238 53.5,239 52.5,240C 54.1802,240.347 55.1802,241.347 55.5,243C 55.0561,246.26 54.7228,249.76 54.5,253.5 Z"/></g>
<g><path style="opacity:0.553" fill="#b3b2b3" d="M 337.5,276.5 C 339.167,277.5 340.5,278.833 341.5,280.5C 339.167,280.167 337.833,278.833 337.5,276.5 Z"/></g>
<g><path style="opacity:0.173" fill="#c7c6c6" d="M 29.5,276.5 C 29.539,279.089 28.539,281.089 26.5,282.5C 26.9925,280.181 27.9925,278.181 29.5,276.5 Z"/></g>
<g><path style="opacity:0.486" fill="#aeacad" d="M 367.5,279.5 C 367.027,280.906 366.027,281.573 364.5,281.5C 364.973,280.094 365.973,279.427 367.5,279.5 Z"/></g>
<g><path style="opacity:0.224" fill="#c0bfc0" d="M 93.5,279.5 C 95.588,281.336 96.9213,283.669 97.5,286.5C 95.412,284.664 94.0787,282.331 93.5,279.5 Z"/></g>
<g><path style="opacity:0.788" fill="#9a9899" d="M 341.5,280.5 C 343.368,281.263 345.035,282.263 346.5,283.5C 343.966,283.741 342.3,282.741 341.5,280.5 Z"/></g>
<g><path style="opacity:0.141" fill="#cccbcb" d="M 106.5,280.5 C 108.25,281.659 109.25,283.326 109.5,285.5C 107.75,284.341 106.75,282.674 106.5,280.5 Z"/></g>
<g><path style="opacity:0.737" fill="#918f90" d="M 336.5,283.5 C 338.404,283.738 339.738,284.738 340.5,286.5C 338.596,286.262 337.262,285.262 336.5,283.5 Z"/></g>
<g><path style="opacity:0.008" fill="#dbdbdb" d="M 372.5,281.5 C 372.5,283.5 371.5,284.5 369.5,284.5C 370.167,283.167 371.167,282.167 372.5,281.5 Z"/></g>
<g><path style="opacity:0.914" fill="#686667" d="M 364.5,281.5 C 363.652,283.093 362.319,284.26 360.5,285C 356.642,285.81 352.976,285.643 349.5,284.5C 354.802,284.881 359.802,283.881 364.5,281.5 Z"/></g>
<g><path style="opacity:0.212" fill="#c0c0c0" d="M 37.5,285.5 C 37.2503,287.674 36.2503,289.341 34.5,290.5C 34.7497,288.326 35.7497,286.659 37.5,285.5 Z"/></g>
<g><path style="opacity:0.235" fill="#bdbcbd" d="M 109.5,286.5 C 110.906,286.973 111.573,287.973 111.5,289.5C 110.094,289.027 109.427,288.027 109.5,286.5 Z"/></g>
<g><path style="opacity:0.971" fill="#636162" d="M 26.5,282.5 C 25.3717,287.219 24.0384,291.886 22.5,296.5C 21.5,296.5 20.5,296.5 19.5,296.5C 21.3255,291.516 23.6589,286.849 26.5,282.5 Z"/></g>
<g><path style="opacity:0.231" fill="#c5c3c4" d="M 365.5,287.5 C 361.979,289.914 357.979,290.914 353.5,290.5C 351.167,290.333 348.833,290.167 346.5,290C 345.584,289.722 344.918,289.222 344.5,288.5C 351.585,289.958 358.585,289.625 365.5,287.5 Z"/></g>
<g><path style="opacity:1" fill="#312d2e" d="M 69.5,209.5 C 71.6744,212.515 73.3411,215.849 74.5,219.5C 74.6596,221.153 75.3263,222.486 76.5,223.5C 77.3382,223.842 77.6716,224.508 77.5,225.5C 77.427,227.027 78.0937,228.027 79.5,228.5C 81.0075,230.181 82.0075,232.181 82.5,234.5C 82.3149,239.634 84.3149,243.634 88.5,246.5C 88.427,248.027 89.0937,249.027 90.5,249.5C 92.6744,252.515 94.3411,255.849 95.5,259.5C 95.7497,261.674 96.7497,263.341 98.5,264.5C 99.1098,265.391 99.4431,266.391 99.5,267.5C 99.427,269.027 100.094,270.027 101.5,270.5C 103.674,273.515 105.341,276.849 106.5,280.5C 106.75,282.674 107.75,284.341 109.5,285.5C 109.5,285.833 109.5,286.167 109.5,286.5C 109.427,288.027 110.094,289.027 111.5,289.5C 114.008,293.182 116.008,297.182 117.5,301.5C 117.75,303.674 118.75,305.341 120.5,306.5C 120.5,306.833 120.5,307.167 120.5,307.5C 120.427,309.027 121.094,310.027 122.5,310.5C 118.884,312.842 114.884,313.175 110.5,311.5C 108.992,309.819 107.992,307.819 107.5,305.5C 106.921,302.669 105.588,300.336 103.5,298.5C 100.992,294.818 98.9922,290.818 97.5,286.5C 96.9213,283.669 95.588,281.336 93.5,279.5C 91.659,277.151 90.3257,274.485 89.5,271.5C 89.3404,269.847 88.6737,268.514 87.5,267.5C 86.6618,267.158 86.3284,266.492 86.5,265.5C 86.2503,263.326 85.2503,261.659 83.5,260.5C 81.659,258.151 80.3257,255.485 79.5,252.5C 78.9213,249.669 77.588,247.336 75.5,245.5C 72.694,240.563 69.8607,235.563 67,230.5C 65.0751,234.687 62.9084,238.687 60.5,242.5C 58.7497,243.659 57.7497,245.326 57.5,247.5C 57.0075,249.819 56.0075,251.819 54.5,253.5C 54.7228,249.76 55.0561,246.26 55.5,243C 55.1802,241.347 54.1802,240.347 52.5,240C 53.5,239 54.5,238 55.5,237C 54.9747,236.308 54.3081,235.808 53.5,235.5C 52.3764,237.369 51.5431,239.369 51,241.5C 50.6174,240.944 50.1174,240.611 49.5,240.5C 50.4408,238.95 51.1075,237.284 51.5,235.5C 52.3257,232.515 53.659,229.849 55.5,227.5C 57.9305,225.954 59.2639,223.621 59.5,220.5C 59.5,220.167 59.5,219.833 59.5,219.5C 61.588,217.664 62.9213,215.331 63.5,212.5C 63.6596,210.847 64.3263,209.514 65.5,208.5C 66.9621,207.529 68.2954,207.862 69.5,209.5 Z"/></g>
<g><path style="opacity:0.161" fill="#c8c7c8" d="M 75.5,245.5 C 77.588,247.336 78.9213,249.669 79.5,252.5C 77.412,250.664 76.0787,248.331 75.5,245.5 Z"/></g>
<g><path style="opacity:0.153" fill="#cdcccc" d="M 60.5,242.5 C 60.2503,244.674 59.2503,246.341 57.5,247.5C 57.7497,245.326 58.7497,243.659 60.5,242.5 Z"/></g>
<g><path style="opacity:0.004" fill="#fdfefd" d="M 66.5,233.5 C 67.8333,234.167 67.8333,234.167 66.5,233.5 Z"/></g>
<g><path style="opacity:0.867" fill="#908e8f" d="M 19.5,296.5 C 19.4077,298.848 18.4077,300.514 16.5,301.5C 16.7497,299.326 17.7497,297.659 19.5,296.5 Z"/></g>
<g><path style="opacity:0.173" fill="#c7c6c7" d="M 103.5,298.5 C 105.588,300.336 106.921,302.669 107.5,305.5C 105.412,303.664 104.079,301.331 103.5,298.5 Z"/></g>
<g><path style="opacity:0.149" fill="#c9c8c9" d="M 117.5,301.5 C 119.25,302.659 120.25,304.326 120.5,306.5C 118.75,305.341 117.75,303.674 117.5,301.5 Z"/></g>
<g><path style="opacity:0.247" fill="#bbbaba" d="M 120.5,307.5 C 121.906,307.973 122.573,308.973 122.5,310.5C 121.094,310.027 120.427,309.027 120.5,307.5 Z"/></g>
<g><path style="opacity:0.004" fill="#fdfefd" d="M 124.5,311.5 C 125.833,312.167 125.833,312.167 124.5,311.5 Z"/></g>
<g><path style="opacity:0.004" fill="#fdfefd" d="M 126.5,311.5 C 127.833,312.167 127.833,312.167 126.5,311.5 Z"/></g>
<g><path style="opacity:0.505" fill="#989797" d="M 11.5,311.5 C 15.3989,312.791 19.3989,312.791 23.5,311.5C 21.777,312.8 19.6103,313.467 17,313.5C 14.8333,313.167 12.6667,312.833 10.5,312.5C 10.6236,311.893 10.9569,311.56 11.5,311.5 Z"/></g>
<g><path style="opacity:0.506" fill="#959495" d="M 122.5,310.5 C 123.167,311.167 123.833,311.833 124.5,312.5C 122.359,313.163 120.025,313.497 117.5,313.5C 114.731,313.471 112.397,312.805 110.5,311.5C 114.884,313.175 118.884,312.842 122.5,310.5 Z"/></g>
</svg>
